<svg enable-background="new 0 0 100 100"
     height="512"
     viewBox="0 0 100 100"
     width="512"
     xmlns="http://www.w3.org/2000/svg">
    <g id="Layer_21"><g><path d="m35 33h50c1.6566849 0 3-1.3432999 3-3s-1.3433151-3-3-3h-50c-1.6567116 0-3 1.3432999-3 3s1.3432884 3 3 3z"/><circle cx="20" cy="30" r="5"/><path d="m85 47h-50c-1.6567116 0-3 1.3432999-3 3s1.3432884 3 3 3h50c1.6566849 0 3-1.3432999 3-3s-1.3433151-3-3-3z"/><circle cx="20" cy="50" r="5"/><path d="m85 67h-50c-1.6567116 0-3 1.3432999-3 3s1.3432884 3 3 3h50c1.6566849 0 3-1.3432999 3-3s-1.3433151-3-3-3z"/><circle cx="20" cy="70" r="5"/></g></g></svg>